<svg width="348" height="180" viewBox="0 0 348 180" fill="none" xmlns="http://www.w3.org/2000/svg">
<g filter="url(#filter0_d_6_698)">
<rect x="44" y="20" width="260" height="92" rx="46" fill="white" shape-rendering="crispEdges"/>
<circle cx="94" cy="66" r="30" fill="black"/>
<path d="M102.333 57.6667H80.6666C79.7826 57.6667 78.9347 58.0179 78.3096 58.643C77.6845 59.2681 77.3333 60.116 77.3333 61V71C77.3333 71.8841 77.6845 72.7319 78.3096 73.357C78.9347 73.9822 79.7826 74.3334 80.6666 74.3334H102.333C103.217 74.3334 104.065 73.9822 104.69 73.357C105.315 72.7319 105.667 71.8841 105.667 71V61C105.667 60.116 105.315 59.2681 104.69 58.643C104.065 58.0179 103.217 57.6667 102.333 57.6667ZM102.333 71H80.6666V61H102.333V71ZM109 62.6667C108.558 62.6667 108.134 62.8423 107.821 63.1548C107.509 63.4674 107.333 63.8913 107.333 64.3334V67.6667C107.333 68.1087 107.509 68.5326 107.821 68.8452C108.134 69.1578 108.558 69.3334 109 69.3334C109.442 69.3334 109.866 69.1578 110.178 68.8452C110.491 68.5326 110.667 68.1087 110.667 67.6667V64.3334C110.667 63.8913 110.491 63.4674 110.178 63.1548C109.866 62.8423 109.442 62.6667 109 62.6667Z" fill="white"/>
<path d="M141.968 58V44.9091H146.545C147.457 44.9091 148.209 45.0668 148.801 45.3821C149.393 45.6932 149.834 46.1129 150.124 46.6413C150.414 47.1655 150.559 47.7472 150.559 48.3864C150.559 48.9489 150.459 49.4134 150.258 49.7798C150.062 50.1463 149.803 50.4361 149.479 50.6491C149.159 50.8622 148.812 51.0199 148.437 51.1222V51.25C148.837 51.2756 149.24 51.4162 149.645 51.6719C150.05 51.9276 150.388 52.294 150.661 52.7713C150.934 53.2486 151.07 53.8324 151.07 54.5227C151.07 55.179 150.921 55.7692 150.623 56.2933C150.325 56.8175 149.854 57.233 149.21 57.5398C148.567 57.8466 147.729 58 146.698 58H141.968ZM143.553 56.5938H146.698C147.734 56.5938 148.469 56.3935 148.903 55.9929C149.342 55.5881 149.562 55.098 149.562 54.5227C149.562 54.0795 149.449 53.6705 149.223 53.2955C148.997 52.9162 148.675 52.6136 148.258 52.3878C147.84 52.1577 147.346 52.0426 146.775 52.0426H143.553V56.5938ZM143.553 50.6619H146.494C146.971 50.6619 147.401 50.5682 147.785 50.3807C148.173 50.1932 148.479 49.929 148.705 49.5881C148.935 49.2472 149.05 48.8466 149.05 48.3864C149.05 47.8111 148.85 47.3232 148.45 46.9226C148.049 46.5178 147.414 46.3153 146.545 46.3153H143.553V50.6619ZM156.18 58.2301C155.558 58.2301 154.993 58.1129 154.486 57.8786C153.979 57.6399 153.576 57.2969 153.278 56.8494C152.979 56.3977 152.83 55.8523 152.83 55.2131C152.83 54.6506 152.941 54.1946 153.163 53.8452C153.384 53.4915 153.68 53.2145 154.051 53.0142C154.422 52.8139 154.831 52.6648 155.278 52.5668C155.73 52.4645 156.184 52.3835 156.64 52.3239C157.237 52.2472 157.72 52.1896 158.091 52.1513C158.466 52.1087 158.739 52.0384 158.909 51.9403C159.084 51.8423 159.171 51.6719 159.171 51.429V51.3778C159.171 50.7472 158.999 50.2571 158.653 49.9077C158.313 49.5582 157.795 49.3835 157.1 49.3835C156.38 49.3835 155.815 49.5412 155.406 49.8565C154.997 50.1719 154.71 50.5085 154.543 50.8665L153.112 50.3551C153.367 49.7585 153.708 49.294 154.134 48.9616C154.565 48.625 155.033 48.3906 155.54 48.2585C156.052 48.1222 156.555 48.054 157.049 48.054C157.364 48.054 157.727 48.0923 158.136 48.169C158.549 48.2415 158.947 48.3928 159.331 48.6229C159.719 48.853 160.04 49.2003 160.296 49.6648C160.552 50.1293 160.68 50.7514 160.68 51.5312V58H159.171V56.6705H159.094C158.992 56.8835 158.822 57.1115 158.583 57.3544C158.344 57.5973 158.027 57.804 157.631 57.9744C157.234 58.1449 156.751 58.2301 156.18 58.2301ZM156.41 56.875C157.006 56.875 157.509 56.7578 157.918 56.5234C158.332 56.2891 158.643 55.9865 158.852 55.6158C159.065 55.245 159.171 54.8551 159.171 54.446V53.0653C159.107 53.142 158.967 53.2124 158.749 53.2763C158.536 53.3359 158.289 53.3892 158.008 53.4361C157.731 53.4787 157.46 53.517 157.196 53.5511C156.936 53.581 156.725 53.6065 156.563 53.6278C156.171 53.679 155.805 53.7621 155.464 53.8771C155.127 53.9879 154.854 54.1562 154.646 54.3821C154.441 54.6037 154.339 54.9062 154.339 55.2898C154.339 55.8139 154.533 56.2102 154.92 56.4787C155.313 56.7429 155.809 56.875 156.41 56.875ZM167.523 48.1818V49.4602H162.435V48.1818H167.523ZM163.918 45.8295H165.426V55.1875C165.426 55.6136 165.488 55.9332 165.612 56.1463C165.74 56.3551 165.902 56.4957 166.098 56.5682C166.298 56.6364 166.509 56.6705 166.73 56.6705C166.897 56.6705 167.033 56.6619 167.139 56.6449C167.246 56.6236 167.331 56.6065 167.395 56.5938L167.702 57.9489C167.6 57.9872 167.457 58.0256 167.274 58.0639C167.09 58.1065 166.858 58.1278 166.577 58.1278C166.151 58.1278 165.733 58.0362 165.324 57.853C164.919 57.6697 164.583 57.3906 164.314 57.0156C164.05 56.6406 163.918 56.1676 163.918 55.5966V45.8295ZM173.882 48.1818V49.4602H168.794V48.1818H173.882ZM170.277 45.8295H171.785V55.1875C171.785 55.6136 171.847 55.9332 171.971 56.1463C172.099 56.3551 172.261 56.4957 172.457 56.5682C172.657 56.6364 172.868 56.6705 173.089 56.6705C173.256 56.6705 173.392 56.6619 173.498 56.6449C173.605 56.6236 173.69 56.6065 173.754 56.5938L174.061 57.9489C173.959 57.9872 173.816 58.0256 173.633 58.0639C173.449 58.1065 173.217 58.1278 172.936 58.1278C172.51 58.1278 172.092 58.0362 171.683 57.853C171.278 57.6697 170.942 57.3906 170.673 57.0156C170.409 56.6406 170.277 56.1676 170.277 55.5966V45.8295ZM179.982 58.2045C179.036 58.2045 178.22 57.9957 177.534 57.5781C176.852 57.1562 176.326 56.5682 175.955 55.8139C175.589 55.0554 175.405 54.1733 175.405 53.1676C175.405 52.1619 175.589 51.2756 175.955 50.5085C176.326 49.7372 176.842 49.1364 177.502 48.706C178.167 48.2713 178.942 48.054 179.829 48.054C180.34 48.054 180.845 48.1392 181.344 48.3097C181.842 48.4801 182.296 48.7571 182.705 49.1406C183.114 49.5199 183.44 50.0227 183.683 50.6491C183.926 51.2756 184.048 52.0469 184.048 52.9631V53.6023H176.479V52.2983H182.513C182.513 51.7443 182.403 51.25 182.181 50.8153C181.964 50.3807 181.653 50.0376 181.248 49.7862C180.847 49.5348 180.374 49.4091 179.829 49.4091C179.228 49.4091 178.708 49.5582 178.269 49.8565C177.834 50.1506 177.5 50.5341 177.266 51.0071C177.031 51.4801 176.914 51.9872 176.914 52.5284V53.3977C176.914 54.1392 177.042 54.7678 177.298 55.2834C177.557 55.7947 177.918 56.1847 178.378 56.4531C178.838 56.7173 179.373 56.8494 179.982 56.8494C180.379 56.8494 180.736 56.794 181.056 56.6832C181.38 56.5682 181.659 56.3977 181.893 56.1719C182.128 55.9418 182.309 55.6562 182.437 55.3153L183.894 55.7244C183.741 56.2188 183.483 56.6534 183.121 57.0284C182.758 57.3991 182.311 57.6889 181.778 57.8977C181.246 58.1023 180.647 58.2045 179.982 58.2045ZM186.162 58V48.1818H187.62V49.6648H187.722C187.901 49.179 188.225 48.7848 188.694 48.4822C189.162 48.1797 189.691 48.0284 190.279 48.0284C190.39 48.0284 190.528 48.0305 190.694 48.0348C190.86 48.0391 190.986 48.0455 191.071 48.054V49.5881C191.02 49.5753 190.903 49.5561 190.72 49.5305C190.541 49.5007 190.351 49.4858 190.151 49.4858C189.674 49.4858 189.248 49.5859 188.873 49.7862C188.502 49.9822 188.208 50.255 187.99 50.6044C187.777 50.9496 187.671 51.3437 187.671 51.7869V58H186.162ZM193.95 61.6818C193.694 61.6818 193.466 61.6605 193.266 61.6179C193.066 61.5795 192.927 61.5412 192.851 61.5028L193.234 60.1733C193.601 60.267 193.924 60.3011 194.206 60.2756C194.487 60.25 194.736 60.1243 194.954 59.8984C195.175 59.6768 195.378 59.3168 195.561 58.8182L195.842 58.0511L192.211 48.1818H193.848L196.558 56.0057H196.66L199.37 48.1818H201.007L196.839 59.4318C196.652 59.9389 196.419 60.3587 196.142 60.6911C195.865 61.0277 195.544 61.277 195.177 61.4389C194.815 61.6009 194.406 61.6818 193.95 61.6818Z" fill="#8A8A8A"/>
<path d="M142.305 89L148.491 76.7557V76.6562H141.31V74.4545H151.218V76.706L145.039 89H142.305ZM158.188 89.1989C157.132 89.1989 156.194 89.0213 155.375 88.6662C154.561 88.3111 153.922 87.8258 153.458 87.2102C152.998 86.59 152.771 85.8868 152.776 85.1009C152.771 84.4901 152.904 83.929 153.173 83.4176C153.443 82.9062 153.808 82.4801 154.267 82.1392C154.731 81.7936 155.247 81.5734 155.816 81.4787V81.3793C155.067 81.2135 154.461 80.8324 153.997 80.2358C153.538 79.6345 153.311 78.9408 153.316 78.1548C153.311 77.4067 153.519 76.7391 153.941 76.152C154.362 75.5649 154.94 75.1032 155.673 74.767C156.407 74.4261 157.245 74.2557 158.188 74.2557C159.12 74.2557 159.951 74.4261 160.681 74.767C161.414 75.1032 161.992 75.5649 162.414 76.152C162.84 76.7391 163.053 77.4067 163.053 78.1548C163.053 78.9408 162.818 79.6345 162.35 80.2358C161.886 80.8324 161.287 81.2135 160.553 81.3793V81.4787C161.121 81.5734 161.632 81.7936 162.087 82.1392C162.546 82.4801 162.911 82.9062 163.181 83.4176C163.455 83.929 163.593 84.4901 163.593 85.1009C163.593 85.8868 163.361 86.59 162.896 87.2102C162.432 87.8258 161.793 88.3111 160.979 88.6662C160.169 89.0213 159.239 89.1989 158.188 89.1989ZM158.188 87.1676C158.732 87.1676 159.206 87.0753 159.608 86.8906C160.011 86.7012 160.323 86.4361 160.546 86.0952C160.768 85.7543 160.882 85.3613 160.887 84.9162C160.882 84.4522 160.761 84.0426 160.524 83.6875C160.292 83.3277 159.973 83.0459 159.566 82.8423C159.163 82.6387 158.704 82.5369 158.188 82.5369C157.667 82.5369 157.203 82.6387 156.796 82.8423C156.388 83.0459 156.066 83.3277 155.83 83.6875C155.598 84.0426 155.484 84.4522 155.489 84.9162C155.484 85.3613 155.593 85.7543 155.816 86.0952C156.038 86.4313 156.351 86.6941 156.753 86.8835C157.16 87.0729 157.638 87.1676 158.188 87.1676ZM158.188 80.5412C158.633 80.5412 159.026 80.4512 159.367 80.2713C159.712 80.0914 159.985 79.8404 160.183 79.5185C160.382 79.1965 160.484 78.8248 160.489 78.4034C160.484 77.9867 160.385 77.6222 160.191 77.3097C159.996 76.9924 159.727 76.7486 159.381 76.5781C159.035 76.4029 158.637 76.3153 158.188 76.3153C157.728 76.3153 157.324 76.4029 156.973 76.5781C156.628 76.7486 156.358 76.9924 156.164 77.3097C155.974 77.6222 155.882 77.9867 155.887 78.4034C155.882 78.8248 155.977 79.1965 156.171 79.5185C156.369 79.8357 156.642 80.0866 156.987 80.2713C157.338 80.4512 157.738 80.5412 158.188 80.5412ZM170.63 89V74.4545H173.265V80.6122H180.005V74.4545H182.647V89H180.005V82.821H173.265V89H170.63ZM189.958 89.2131C188.893 89.2131 187.969 88.9787 187.188 88.5099C186.407 88.0412 185.801 87.3854 185.37 86.5426C184.944 85.6998 184.731 84.715 184.731 83.5881C184.731 82.4612 184.944 81.474 185.37 80.6264C185.801 79.7789 186.407 79.1207 187.188 78.652C187.969 78.1832 188.893 77.9489 189.958 77.9489C191.023 77.9489 191.947 78.1832 192.728 78.652C193.509 79.1207 194.113 79.7789 194.539 80.6264C194.97 81.474 195.185 82.4612 195.185 83.5881C195.185 84.715 194.97 85.6998 194.539 86.5426C194.113 87.3854 193.509 88.0412 192.728 88.5099C191.947 88.9787 191.023 89.2131 189.958 89.2131ZM189.972 87.1534C190.55 87.1534 191.033 86.9948 191.421 86.6776C191.809 86.3556 192.098 85.9247 192.288 85.3849C192.482 84.8452 192.579 84.2438 192.579 83.581C192.579 82.9134 192.482 82.3097 192.288 81.7699C192.098 81.2254 191.809 80.7921 191.421 80.4702C191.033 80.1482 190.55 79.9872 189.972 79.9872C189.38 79.9872 188.888 80.1482 188.495 80.4702C188.107 80.7921 187.816 81.2254 187.621 81.7699C187.432 82.3097 187.337 82.9134 187.337 83.581C187.337 84.2438 187.432 84.8452 187.621 85.3849C187.816 85.9247 188.107 86.3556 188.495 86.6776C188.888 86.9948 189.38 87.1534 189.972 87.1534ZM204.121 84.4119V78.0909H206.692V89H204.199V87.0611H204.085C203.839 87.6719 203.434 88.1714 202.871 88.5597C202.312 88.9479 201.623 89.142 200.804 89.142C200.089 89.142 199.457 88.9834 198.908 88.6662C198.363 88.3442 197.937 87.8778 197.629 87.267C197.321 86.6515 197.168 85.9081 197.168 85.0369V78.0909H199.739V84.6392C199.739 85.3305 199.928 85.8797 200.307 86.2869C200.686 86.6941 201.183 86.8977 201.798 86.8977C202.177 86.8977 202.544 86.8054 202.899 86.6207C203.254 86.4361 203.545 86.1615 203.773 85.7969C204.005 85.4276 204.121 84.9659 204.121 84.4119ZM209.135 89V78.0909H211.628V79.9091H211.742C211.941 79.2794 212.282 78.794 212.765 78.4531C213.252 78.1075 213.809 77.9347 214.434 77.9347C214.576 77.9347 214.734 77.9418 214.91 77.956C215.09 77.9654 215.239 77.982 215.357 78.0057V80.3707C215.248 80.3329 215.075 80.2997 214.839 80.2713C214.607 80.2382 214.382 80.2216 214.164 80.2216C213.695 80.2216 213.274 80.3234 212.9 80.527C212.53 80.7259 212.239 81.0028 212.026 81.358C211.813 81.7131 211.706 82.1226 211.706 82.5866V89H209.135ZM225.487 80.9744L223.144 81.2301C223.077 80.9934 222.961 80.7708 222.796 80.5625C222.635 80.3542 222.417 80.1861 222.142 80.0582C221.868 79.9304 221.531 79.8665 221.134 79.8665C220.599 79.8665 220.149 79.9825 219.784 80.2145C219.424 80.4465 219.247 80.7472 219.252 81.1165C219.247 81.4337 219.363 81.6918 219.6 81.8906C219.841 82.0895 220.239 82.2528 220.793 82.3807L222.654 82.7784C223.686 83.0009 224.453 83.3537 224.955 83.8366C225.461 84.3196 225.717 84.9517 225.722 85.733C225.717 86.4195 225.516 87.0256 225.118 87.5511C224.725 88.072 224.178 88.4792 223.477 88.7727C222.777 89.0663 221.972 89.2131 221.063 89.2131C219.727 89.2131 218.653 88.9337 217.838 88.375C217.024 87.8116 216.538 87.0279 216.382 86.0241L218.889 85.7827C219.003 86.2751 219.244 86.6468 219.614 86.8977C219.983 87.1487 220.464 87.2741 221.056 87.2741C221.666 87.2741 222.156 87.1487 222.526 86.8977C222.9 86.6468 223.087 86.3366 223.087 85.9673C223.087 85.6548 222.966 85.3968 222.725 85.1932C222.488 84.9896 222.118 84.8333 221.617 84.7244L219.756 84.3338C218.709 84.116 217.935 83.7491 217.433 83.233C216.931 82.7121 216.683 82.054 216.688 81.2585C216.683 80.5862 216.865 80.0038 217.234 79.5114C217.609 79.0142 218.127 78.6307 218.79 78.3608C219.457 78.0862 220.227 77.9489 221.098 77.9489C222.377 77.9489 223.383 78.2211 224.117 78.7656C224.855 79.3101 225.312 80.0464 225.487 80.9744Z" fill="black"/>
</g>
<defs>
<filter id="filter0_d_6_698" x="0" y="0" width="348" height="180" filterUnits="userSpaceOnUse" color-interpolation-filters="sRGB">
<feFlood flood-opacity="0" result="BackgroundImageFix"/>
<feColorMatrix in="SourceAlpha" type="matrix" values="0 0 0 0 0 0 0 0 0 0 0 0 0 0 0 0 0 0 127 0" result="hardAlpha"/>
<feOffset dy="24"/>
<feGaussianBlur stdDeviation="22"/>
<feComposite in2="hardAlpha" operator="out"/>
<feColorMatrix type="matrix" values="0 0 0 0 0.886275 0 0 0 0 0.847059 0 0 0 0 0.937255 0 0 0 1 0"/>
<feBlend mode="multiply" in2="BackgroundImageFix" result="effect1_dropShadow_6_698"/>
<feBlend mode="normal" in="SourceGraphic" in2="effect1_dropShadow_6_698" result="shape"/>
</filter>
</defs>
</svg>
