<svg width="24" height="24" viewBox="0 0 24 24" fill="none" xmlns="http://www.w3.org/2000/svg">
<g id="Icons">
<path id="Vector" d="M16.5804 6.5059L9.84109 13.2543L7.41867 10.8241L7.412 10.8174L7.40521 10.8109C7.21423 10.6264 6.9888 10.4813 6.74176 10.384C6.49473 10.2866 6.23094 10.2389 5.96546 10.2435C5.69998 10.2481 5.438 10.3049 5.19448 10.4108C4.95097 10.5166 4.73068 10.6694 4.54621 10.8603C4.36173 11.0513 4.21667 11.2767 4.11932 11.5238C4.02197 11.7708 3.97423 12.0346 3.97882 12.3001C3.98341 12.5656 4.04025 12.8275 4.14609 13.0711C4.25059 13.3115 4.40083 13.5293 4.58842 13.7123L8.42044 17.5443C8.42102 17.5449 8.4216 17.5455 8.42218 17.5461C8.60775 17.7327 8.82833 17.8809 9.07128 17.9821C9.31501 18.0836 9.57642 18.1359 9.84044 18.1359C10.1045 18.1359 10.3659 18.0836 10.6096 17.9821C10.8525 17.8809 11.0731 17.7327 11.2587 17.5461C11.2592 17.5455 11.2598 17.5449 11.2604 17.5443L19.4057 9.39901C19.6007 9.21486 19.7567 8.99331 19.8643 8.74752C19.9752 8.49452 20.0324 8.22131 20.0324 7.94511C20.0324 7.6689 19.9752 7.39569 19.8643 7.14269C19.7565 6.89647 19.6002 6.67459 19.4047 6.49024C19.2221 6.31015 19.0065 6.16682 18.7696 6.06812C18.5259 5.96658 18.2645 5.91431 18.0004 5.91431C17.7364 5.91431 17.475 5.96658 17.2313 6.06812C16.9882 6.16941 16.7674 6.31773 16.5818 6.50454C16.5813 6.50499 16.5809 6.50545 16.5804 6.5059Z" fill="black" stroke="white" stroke-width="2"/>
</g>
</svg>
