<svg width="135" height="26" viewBox="0 0 135 26" fill="none" xmlns="http://www.w3.org/2000/svg">
<rect width="135" height="26" fill="#DFDFDF"/>
<rect width="1440" height="5999" transform="translate(-123 -9)" fill="white"/>
<g clip-path="url(#clip0_0_1)">
<rect width="1728" height="46" transform="translate(-107.541 -165) rotate(27.8068)" fill="black"/>
<path d="M102.685 -33.4707L103.755 -32.9061L103.996 -28.1736L104.086 -28.1258L108.127 -30.6002L109.198 -30.0356L104.015 -26.9684L102.337 -23.7871L101.403 -24.2801L103.08 -27.4614L102.685 -33.4707ZM115.849 -21.5948C115.419 -20.7806 114.901 -20.1545 114.294 -19.7165C113.688 -19.2786 113.043 -19.0339 112.361 -18.9826C111.679 -18.9313 111.008 -19.0793 110.35 -19.4265C109.691 -19.7737 109.191 -20.2433 108.848 -20.8353C108.505 -21.4273 108.343 -22.0974 108.361 -22.8455C108.38 -23.5936 108.604 -24.3747 109.034 -25.1889C109.463 -26.003 109.981 -26.6291 110.588 -27.0671C111.195 -27.5051 111.839 -27.7497 112.521 -27.801C113.204 -27.8523 113.874 -27.7043 114.532 -27.3571C115.191 -27.0099 115.691 -26.5403 116.034 -25.9483C116.377 -25.3563 116.54 -24.6862 116.521 -23.9381C116.502 -23.19 116.278 -22.4089 115.849 -21.5948ZM114.944 -22.0718C115.296 -22.7403 115.482 -23.3634 115.501 -23.9412C115.522 -24.5177 115.406 -25.0241 115.151 -25.4604C114.898 -25.8954 114.539 -26.2361 114.071 -26.4826C113.604 -26.7291 113.118 -26.8343 112.614 -26.7982C112.113 -26.7608 111.629 -26.5711 111.163 -26.2292C110.699 -25.886 110.291 -25.3802 109.938 -24.7118C109.586 -24.0433 109.399 -23.4209 109.377 -22.8444C109.359 -22.2666 109.475 -21.7602 109.728 -21.3252C109.983 -20.8889 110.344 -20.5475 110.811 -20.301C111.278 -20.0545 111.763 -19.95 112.264 -19.9874C112.768 -20.0235 113.252 -20.2131 113.716 -20.5564C114.182 -20.8983 114.591 -21.4034 114.944 -22.0718ZM125.849 -21.2541L126.783 -20.7611L124.088 -15.6499C123.81 -15.1222 123.437 -14.7167 122.969 -14.4333C122.506 -14.151 121.986 -14.0092 121.41 -14.0077C120.836 -14.0087 120.246 -14.1689 119.64 -14.4883C119.035 -14.8076 118.569 -15.2041 118.244 -15.6775C117.92 -16.1534 117.743 -16.6631 117.711 -17.2064C117.683 -17.7509 117.809 -18.287 118.087 -18.8147L120.783 -23.9258L121.718 -23.4328L119.062 -18.3971C118.863 -18.0201 118.769 -17.6409 118.78 -17.2595C118.792 -16.8805 118.907 -16.526 119.125 -16.1959C119.346 -15.8671 119.672 -15.5894 120.102 -15.3627C120.531 -15.1361 120.944 -15.0242 121.341 -15.0271C121.739 -15.0324 122.096 -15.1378 122.413 -15.3431C122.734 -15.5497 122.994 -15.8414 123.193 -16.2183L125.849 -21.2541ZM125.906 -11.3574L129.977 -19.0768L132.585 -17.7012C133.188 -17.3832 133.629 -17.0191 133.907 -16.6089C134.187 -16.2013 134.326 -15.77 134.323 -15.3151C134.321 -14.8602 134.2 -14.4054 133.96 -13.9505C133.72 -13.4957 133.415 -13.1414 133.043 -12.8877C132.672 -12.634 132.241 -12.508 131.75 -12.5097C131.261 -12.514 130.718 -12.6738 130.119 -12.9892L128.009 -14.1024L128.454 -14.9467L130.535 -13.8494C130.947 -13.6321 131.31 -13.5175 131.625 -13.5056C131.943 -13.4923 132.216 -13.5664 132.446 -13.7279C132.679 -13.8906 132.878 -14.1265 133.041 -14.4356C133.204 -14.7447 133.288 -15.0453 133.295 -15.3374C133.301 -15.6296 133.21 -15.9054 133.023 -16.1649C132.837 -16.4269 132.535 -16.6679 132.118 -16.8879L130.474 -17.7546L126.841 -10.8644L125.906 -11.3574ZM131.368 -12.9088L131.439 -8.43913L130.354 -9.01164L130.313 -13.4654L131.368 -12.9088ZM141.546 -11.9157L141.983 -12.7449L147.773 -9.69151L147.335 -8.86227L144.908 -10.1425L141.274 -3.25222L140.339 -3.74522L143.973 -10.6355L141.546 -11.9157ZM146.471 -0.511414L150.542 -8.23091L155.201 -5.77387L154.764 -4.94463L151.04 -6.90867L149.664 -4.30032L153.147 -2.46351L152.709 -1.63427L149.227 -3.47108L147.843 -0.847659L151.627 1.14818L151.19 1.97743L146.471 -0.511414ZM158.665 -3.947L158.961 0.314035L159.022 0.345842L162.706 -1.81598L163.806 -1.23552L159.343 1.34403L159.735 6.48398L158.634 5.90351L158.306 1.70278L158.246 1.67098L154.594 3.77249L153.493 3.19203L158.016 0.64429L157.564 -4.52747L158.665 -3.947ZM165.49 0.712412L165.927 -0.116831L171.717 2.93657L171.28 3.76581L168.852 2.48561L165.218 9.37586L164.284 8.88287L167.918 1.99261L165.49 0.712412ZM174.727 14.3908L178.799 6.67132L179.733 7.16432L177.92 10.6019L182.036 12.7727L183.849 9.3351L184.784 9.8281L180.713 17.5476L179.778 17.0546L181.599 13.6019L177.483 11.4312L175.662 14.8838L174.727 14.3908ZM183.911 19.2343L187.982 11.5148L192.641 13.9719L192.204 14.8011L188.48 12.8371L187.104 15.4454L190.587 17.2822L190.15 18.1115L186.667 16.2746L185.283 18.8981L189.068 20.8939L188.63 21.7232L183.911 19.2343ZM191.582 23.2797L195.653 15.5602L198.261 16.9358C198.864 17.2539 199.305 17.618 199.583 18.0281C199.863 18.4357 200.002 18.867 199.999 19.3219C199.997 19.7768 199.876 20.2317 199.636 20.6865C199.396 21.1413 199.091 21.4956 198.719 21.7493C198.348 22.0031 197.917 22.1291 197.426 22.1273C196.937 22.1231 196.394 21.9632 195.795 21.6478L193.685 20.5346L194.13 19.6903L196.211 20.7876C196.623 21.0049 196.986 21.1196 197.301 21.1315C197.619 21.1447 197.892 21.0706 198.122 20.9091C198.355 20.7464 198.554 20.5105 198.717 20.2014C198.88 19.8924 198.964 19.5917 198.971 19.2996C198.977 19.0075 198.886 18.7316 198.699 18.4721C198.513 18.2101 198.211 17.9691 197.794 17.7491L196.15 16.8824L192.517 23.7727L191.582 23.2797ZM197.044 21.7283L197.115 26.1979L196.03 25.6254L195.989 21.1717L197.044 21.7283ZM199.698 27.5601L203.769 19.8406L208.428 22.2976L207.991 23.1269L204.267 21.1628L202.891 23.7712L206.374 25.608L205.936 26.4372L202.454 24.6004L201.07 27.2239L204.854 29.2197L204.417 30.0489L199.698 27.5601Z" fill="white"/>
</g>
<g clip-path="url(#clip1_0_1)">
<rect x="-121" y="-34" width="1440" height="94" fill="white"/>
<rect x="-120.5" y="-33.5" width="1439" height="93" stroke="#D9D9E3" stroke-opacity="0.6"/>
<path d="M10.5074 16.0249V10.6233H21.0863V25.2798C18.7751 25.7599 16.2496 26 13.5095 26H9.39949C6.01615 26 3.59778 25.3158 2.14437 23.9474C0.71479 22.5549 0 20.2862 0 17.1413V8.85872C0 5.71376 0.71479 3.45706 2.14437 2.08864C3.59778 0.696214 6.01615 0 9.39949 0H11.8655C14.8438 0 17.3694 0.216067 19.4423 0.6482V6.12188H10.293C8.48217 6.12188 7.57677 7.08218 7.57677 9.00277V16.9972C7.57677 18.9178 8.48217 19.8781 10.293 19.8781H13.8669V16.0249H10.5074Z" fill="black"/>
<path d="M42.3599 25.6399L41.252 21.8587H33.7467L32.6388 25.6399H24.7761L33.3179 0.36011H41.6809L50.2226 25.6399H42.3599ZM37.4994 8.96676L35.4265 16.097H39.5723L37.4994 8.96676Z" fill="black"/>
<path d="M61.6288 9.97507H65.0598C66.1082 9.97507 66.6324 9.51893 66.6324 8.60665V7.63435C66.6324 6.72207 66.1082 6.26593 65.0598 6.26593H61.6288V9.97507ZM74.0662 7.05817V8.28255C74.0662 9.31487 73.8279 10.2151 73.3514 10.9834C72.8749 11.7516 72.2315 12.3038 71.4214 12.6399C72.3269 12.88 73.0416 13.4201 73.5658 14.2604C74.09 15.1006 74.3521 16.133 74.3521 17.3573V18.6537C74.3521 23.3112 71.7193 25.6399 66.4537 25.6399H54.0521V0.36011H66.5251C68.9554 0.36011 70.8139 0.936287 72.1005 2.08864C73.4109 3.21699 74.0662 4.8735 74.0662 7.05817ZM61.6288 19.7341H65.0241C65.5721 19.7341 66.001 19.59 66.3107 19.3019C66.6204 19.0139 66.7753 18.6057 66.7753 18.0776V17.2493C66.7753 16.7211 66.6204 16.313 66.3107 16.0249C66.001 15.7368 65.5721 15.5928 65.0241 15.5928H61.6288V19.7341Z" fill="black"/>
<path d="M87.7108 25.6399H80.1341V0.36011H87.7108V25.6399Z" fill="black"/>
<path d="M107.502 0.36011H115.078V25.6399H107.716L101.676 13.4681V25.6399H94.0635V0.36011H101.426L107.502 12.5319V0.36011Z" fill="black"/>
<path d="M129.014 25.6399H121.437V0.36011H129.014V25.6399Z" fill="black"/>
<path d="M132.437 2.97316V0.929111H133.042C133.231 0.929111 133.383 0.949759 133.496 0.991053C133.613 1.03235 133.696 1.09746 133.747 1.1864C133.8 1.27217 133.827 1.38334 133.827 1.51993C133.827 1.64381 133.793 1.75022 133.723 1.83916C133.654 1.9281 133.55 1.99957 133.411 2.05357L133.979 2.97316H133.6L133.113 2.13934H132.763V2.97316H132.437ZM132.763 1.88681H133.042C133.19 1.88681 133.301 1.85663 133.373 1.79628C133.449 1.73593 133.487 1.64699 133.487 1.52946C133.487 1.39605 133.446 1.30711 133.364 1.26264C133.285 1.21499 133.172 1.19117 133.023 1.19117H132.763V1.88681ZM133.052 3.92609C132.784 3.92609 132.532 3.87527 132.295 3.77362C132.059 3.67198 131.851 3.53221 131.671 3.35433C131.494 3.17327 131.356 2.96363 131.255 2.72539C131.154 2.48716 131.104 2.23304 131.104 1.96305C131.104 1.68987 131.154 1.43576 131.255 1.2007C131.356 0.962465 131.494 0.754408 131.671 0.576527C131.851 0.395469 132.059 0.254117 132.295 0.152471C132.532 0.0508242 132.784 0 133.052 0C133.323 0 133.575 0.0508242 133.808 0.152471C134.045 0.254117 134.251 0.395469 134.428 0.576527C134.608 0.754408 134.748 0.962465 134.849 1.2007C134.95 1.43576 135 1.68987 135 1.96305C135 2.23304 134.95 2.48716 134.849 2.72539C134.748 2.96363 134.608 3.17327 134.428 3.35433C134.251 3.53221 134.045 3.67198 133.808 3.77362C133.575 3.87527 133.323 3.92609 133.052 3.92609ZM133.052 3.65927C133.285 3.65927 133.503 3.61639 133.704 3.53062C133.909 3.44168 134.089 3.31939 134.243 3.16374C134.398 3.0081 134.518 2.82863 134.603 2.62534C134.691 2.41887 134.735 2.1981 134.735 1.96305C134.735 1.72799 134.691 1.50881 134.603 1.30552C134.518 1.09905 134.398 0.917995 134.243 0.762348C134.089 0.606702 133.909 0.485996 133.704 0.400232C133.503 0.311292 133.285 0.266822 133.052 0.266822C132.818 0.266822 132.599 0.311292 132.394 0.400232C132.193 0.485996 132.015 0.606702 131.86 0.762348C131.706 0.917995 131.584 1.09905 131.496 1.30552C131.411 1.50881 131.368 1.72799 131.368 1.96305C131.368 2.1981 131.411 2.41887 131.496 2.62534C131.584 2.82863 131.706 3.0081 131.86 3.16374C132.015 3.31939 132.193 3.44168 132.394 3.53062C132.599 3.61639 132.818 3.65927 133.052 3.65927Z" fill="black"/>
</g>
<defs>
<clipPath id="clip0_0_1">
<rect width="1728" height="46" fill="white" transform="translate(-107.541 -165) rotate(27.8068)"/>
</clipPath>
<clipPath id="clip1_0_1">
<rect width="1440" height="95" fill="white" transform="translate(-121 -34)"/>
</clipPath>
</defs>
</svg>
