<svg width="210" height="42" viewBox="0 0 210 42" fill="none" xmlns="http://www.w3.org/2000/svg">
<path d="M19.0026 8.24672C19.6312 6.31197 22.3684 6.31197 22.997 8.24672L25.2431 15.1595C25.5242 16.0247 26.3306 16.6106 27.2403 16.6106H34.5088C36.5432 16.6106 37.389 19.2137 35.7432 20.4095L29.8628 24.6818C29.1268 25.2166 28.8188 26.1644 29.1 27.0297L31.3461 33.9425C31.9747 35.8772 29.7603 37.4861 28.1145 36.2903L22.2341 32.018C21.4981 31.4833 20.5015 31.4833 19.7654 32.018L13.8851 36.2903C12.2393 37.4861 10.0249 35.8772 10.6535 33.9425L12.8996 27.0297C13.1808 26.1644 12.8728 25.2166 12.1367 24.6818L6.25639 20.4095C4.6106 19.2137 5.45643 16.6106 7.49074 16.6106H14.7593C15.669 16.6106 16.4753 16.0247 16.7565 15.1595L19.0026 8.24672Z" fill="#FF8A00"/>
<path d="M61.0026 8.24672C61.6312 6.31197 64.3684 6.31197 64.997 8.24672L67.2431 15.1595C67.5242 16.0247 68.3306 16.6106 69.2403 16.6106H76.5088C78.5432 16.6106 79.389 19.2137 77.7432 20.4095L71.8628 24.6818C71.1268 25.2166 70.8188 26.1644 71.1 27.0297L73.3461 33.9425C73.9747 35.8772 71.7603 37.4861 70.1145 36.2903L64.2341 32.018C63.4981 31.4833 62.5015 31.4833 61.7654 32.018L55.8851 36.2903C54.2393 37.4861 52.0249 35.8772 52.6535 33.9425L54.8996 27.0297C55.1808 26.1644 54.8728 25.2166 54.1367 24.6818L48.2564 20.4095C46.6106 19.2137 47.4564 16.6106 49.4907 16.6106H56.7593C57.669 16.6106 58.4753 16.0247 58.7565 15.1595L61.0026 8.24672Z" fill="#FF8A00"/>
<path d="M103.003 8.24672C103.631 6.31197 106.368 6.31197 106.997 8.24672L109.243 15.1595C109.524 16.0247 110.331 16.6106 111.24 16.6106H118.509C120.543 16.6106 121.389 19.2137 119.743 20.4095L113.863 24.6818C113.127 25.2166 112.819 26.1644 113.1 27.0297L115.346 33.9425C115.975 35.8772 113.76 37.4861 112.114 36.2903L106.234 32.018C105.498 31.4833 104.501 31.4833 103.765 32.018L97.8851 36.2903C96.2393 37.4861 94.0249 35.8772 94.6535 33.9425L96.8996 27.0297C97.1808 26.1644 96.8728 25.2166 96.1367 24.6818L90.2564 20.4095C88.6106 19.2137 89.4564 16.6106 91.4907 16.6106H98.7593C99.669 16.6106 100.475 16.0247 100.756 15.1595L103.003 8.24672Z" fill="#FF8A00"/>
<path d="M145.003 8.24672C145.631 6.31197 148.368 6.31197 148.997 8.24672L151.243 15.1595C151.524 16.0247 152.331 16.6106 153.24 16.6106H160.509C162.543 16.6106 163.389 19.2137 161.743 20.4095L155.863 24.6818C155.127 25.2166 154.819 26.1644 155.1 27.0297L157.346 33.9425C157.975 35.8772 155.76 37.4861 154.114 36.2903L148.234 32.018C147.498 31.4833 146.501 31.4833 145.765 32.018L139.885 36.2903C138.239 37.4861 136.025 35.8772 136.654 33.9425L138.9 27.0297C139.181 26.1644 138.873 25.2166 138.137 24.6818L132.256 20.4095C130.611 19.2137 131.456 16.6106 133.491 16.6106H140.759C141.669 16.6106 142.475 16.0247 142.756 15.1595L145.003 8.24672Z" fill="#FF8A00"/>
<path d="M187.003 8.24672C187.631 6.31197 190.368 6.31197 190.997 8.24672L193.243 15.1595C193.524 16.0247 194.331 16.6106 195.24 16.6106H202.509C204.543 16.6106 205.389 19.2137 203.743 20.4095L197.863 24.6818C197.127 25.2166 196.819 26.1644 197.1 27.0297L199.346 33.9425C199.975 35.8772 197.76 37.4861 196.114 36.2903L190.234 32.018C189.498 31.4833 188.501 31.4833 187.765 32.018L181.885 36.2903C180.239 37.4861 178.025 35.8772 178.654 33.9425L180.9 27.0297C181.181 26.1644 180.873 25.2166 180.137 24.6818L174.256 20.4095C172.611 19.2137 173.456 16.6106 175.491 16.6106H182.759C183.669 16.6106 184.475 16.0247 184.756 15.1595L187.003 8.24672Z" fill="#FF8A00"/>
</svg>
