<svg width="348" height="180" viewBox="0 0 348 180" fill="none" xmlns="http://www.w3.org/2000/svg">
<g filter="url(#filter0_d_6_691)">
<rect x="44" y="20" width="260" height="92" rx="46" fill="white" shape-rendering="crispEdges"/>
<circle cx="94" cy="66" r="30" fill="black"/>
<path d="M106.507 57.68C106.461 57.5098 106.382 57.3502 106.275 57.2106C106.167 57.071 106.033 56.9541 105.88 56.8667L98.9467 52.8667C98.7953 52.778 98.6279 52.72 98.4541 52.6961C98.2802 52.6722 98.1034 52.6829 97.9337 52.7275C97.764 52.7721 97.6048 52.8497 97.4651 52.956C97.3255 53.0622 97.2082 53.195 97.12 53.3467L94 58.76L90.88 53.3467C90.7918 53.195 90.6745 53.0622 90.5349 52.956C90.3952 52.8497 90.236 52.7721 90.0663 52.7275C89.8966 52.6829 89.7198 52.6722 89.546 52.6961C89.3721 52.72 89.2047 52.778 89.0533 52.8667L82.12 56.8667C81.967 56.9541 81.8328 57.071 81.7252 57.2106C81.6177 57.3502 81.5389 57.5098 81.4933 57.68C81.4051 58.0179 81.453 58.377 81.6267 58.68L86.96 67.7867C86.365 68.8767 86.0361 70.092 86 71.3333C85.9968 72.5444 86.2686 73.7404 86.795 74.8311C87.3213 75.9218 88.0883 76.8787 89.0383 77.6298C89.9883 78.3809 91.0965 78.9065 92.2792 79.167C93.4619 79.4275 94.6883 79.4161 95.8659 79.1337C97.0436 78.8512 98.1417 78.305 99.0776 77.5364C100.013 76.7677 100.763 75.7966 101.268 74.6963C101.774 73.596 102.024 72.3952 101.998 71.1844C101.972 69.9737 101.672 68.7845 101.12 67.7067L106.32 58.6933C106.417 58.5453 106.483 58.3794 106.515 58.2054C106.547 58.0315 106.544 57.8529 106.507 57.68ZM84.6667 58.5067L89.28 55.84L93.5733 63.3333C91.7432 63.4464 90.0091 64.191 88.6667 65.44L84.6667 58.5067ZM94 76.6667C92.5855 76.6667 91.229 76.1048 90.2288 75.1046C89.2286 74.1044 88.6667 72.7478 88.6667 71.3333C88.6667 69.9189 89.2286 68.5623 90.2288 67.5621C91.229 66.5619 92.5855 66 94 66C95.4145 66 96.771 66.5619 97.7712 67.5621C98.7714 68.5623 99.3333 69.9189 99.3333 71.3333C99.3333 72.7478 98.7714 74.1044 97.7712 75.1046C96.771 76.1048 95.4145 76.6667 94 76.6667ZM99.3333 65.4C98.6094 64.7388 97.7683 64.2188 96.8533 63.8667L95.5467 61.4267L98.7733 55.84L103.387 58.5067L99.3333 65.4Z" fill="white"/>
<path d="M144.123 58L140.544 44.9091H142.155L144.89 55.571H145.018L147.805 44.9091H149.595L152.382 55.571H152.51L155.246 44.9091H156.856L153.277 58H151.64L148.751 47.5682H148.649L145.76 58H144.123ZM160.422 58.2301C159.8 58.2301 159.235 58.1129 158.728 57.8786C158.221 57.6399 157.818 57.2969 157.52 56.8494C157.222 56.3977 157.073 55.8523 157.073 55.2131C157.073 54.6506 157.183 54.1946 157.405 53.8452C157.627 53.4915 157.923 53.2145 158.293 53.0142C158.664 52.8139 159.073 52.6648 159.521 52.5668C159.972 52.4645 160.426 52.3835 160.882 52.3239C161.479 52.2472 161.963 52.1896 162.333 52.1513C162.708 52.1087 162.981 52.0384 163.151 51.9403C163.326 51.8423 163.414 51.6719 163.414 51.429V51.3778C163.414 50.7472 163.241 50.2571 162.896 49.9077C162.555 49.5582 162.037 49.3835 161.342 49.3835C160.622 49.3835 160.058 49.5412 159.649 49.8565C159.24 50.1719 158.952 50.5085 158.786 50.8665L157.354 50.3551C157.61 49.7585 157.95 49.294 158.377 48.9616C158.807 48.625 159.276 48.3906 159.783 48.2585C160.294 48.1222 160.797 48.054 161.291 48.054C161.607 48.054 161.969 48.0923 162.378 48.169C162.791 48.2415 163.19 48.3928 163.573 48.6229C163.961 48.853 164.283 49.2003 164.539 49.6648C164.794 50.1293 164.922 50.7514 164.922 51.5312V58H163.414V56.6705H163.337C163.235 56.8835 163.064 57.1115 162.825 57.3544C162.587 57.5973 162.269 57.804 161.873 57.9744C161.477 58.1449 160.993 58.2301 160.422 58.2301ZM160.652 56.875C161.249 56.875 161.752 56.7578 162.161 56.5234C162.574 56.2891 162.885 55.9865 163.094 55.6158C163.307 55.245 163.414 54.8551 163.414 54.446V53.0653C163.35 53.142 163.209 53.2124 162.992 53.2763C162.779 53.3359 162.531 53.3892 162.25 53.4361C161.973 53.4787 161.703 53.517 161.438 53.5511C161.178 53.581 160.967 53.6065 160.806 53.6278C160.414 53.679 160.047 53.7621 159.706 53.8771C159.369 53.9879 159.097 54.1562 158.888 54.3821C158.683 54.6037 158.581 54.9062 158.581 55.2898C158.581 55.8139 158.775 56.2102 159.163 56.4787C159.555 56.7429 160.051 56.875 160.652 56.875ZM167.495 58V48.1818H168.953V49.6648H169.055C169.234 49.179 169.558 48.7848 170.027 48.4822C170.495 48.1797 171.024 48.0284 171.612 48.0284C171.723 48.0284 171.861 48.0305 172.027 48.0348C172.194 48.0391 172.319 48.0455 172.405 48.054V49.5881C172.353 49.5753 172.236 49.5561 172.053 49.5305C171.874 49.5007 171.684 49.4858 171.484 49.4858C171.007 49.4858 170.581 49.5859 170.206 49.7862C169.835 49.9822 169.541 50.255 169.324 50.6044C169.11 50.9496 169.004 51.3437 169.004 51.7869V58H167.495ZM174.013 58V48.1818H175.47V49.6648H175.572C175.751 49.179 176.075 48.7848 176.544 48.4822C177.013 48.1797 177.541 48.0284 178.129 48.0284C178.24 48.0284 178.378 48.0305 178.545 48.0348C178.711 48.0391 178.837 48.0455 178.922 48.054V49.5881C178.871 49.5753 178.753 49.5561 178.57 49.5305C178.391 49.5007 178.202 49.4858 178.001 49.4858C177.524 49.4858 177.098 49.5859 176.723 49.7862C176.352 49.9822 176.058 50.255 175.841 50.6044C175.628 50.9496 175.521 51.3437 175.521 51.7869V58H174.013ZM183.419 58.2301C182.797 58.2301 182.232 58.1129 181.725 57.8786C181.218 57.6399 180.815 57.2969 180.517 56.8494C180.219 56.3977 180.07 55.8523 180.07 55.2131C180.07 54.6506 180.181 54.1946 180.402 53.8452C180.624 53.4915 180.92 53.2145 181.291 53.0142C181.661 52.8139 182.07 52.6648 182.518 52.5668C182.97 52.4645 183.423 52.3835 183.879 52.3239C184.476 52.2472 184.96 52.1896 185.33 52.1513C185.705 52.1087 185.978 52.0384 186.149 51.9403C186.323 51.8423 186.411 51.6719 186.411 51.429V51.3778C186.411 50.7472 186.238 50.2571 185.893 49.9077C185.552 49.5582 185.034 49.3835 184.34 49.3835C183.619 49.3835 183.055 49.5412 182.646 49.8565C182.237 50.1719 181.949 50.5085 181.783 50.8665L180.351 50.3551C180.607 49.7585 180.948 49.294 181.374 48.9616C181.804 48.625 182.273 48.3906 182.78 48.2585C183.291 48.1222 183.794 48.054 184.288 48.054C184.604 48.054 184.966 48.0923 185.375 48.169C185.788 48.2415 186.187 48.3928 186.57 48.6229C186.958 48.853 187.28 49.2003 187.536 49.6648C187.791 50.1293 187.919 50.7514 187.919 51.5312V58H186.411V56.6705H186.334C186.232 56.8835 186.061 57.1115 185.823 57.3544C185.584 57.5973 185.266 57.804 184.87 57.9744C184.474 58.1449 183.99 58.2301 183.419 58.2301ZM183.649 56.875C184.246 56.875 184.749 56.7578 185.158 56.5234C185.571 56.2891 185.882 55.9865 186.091 55.6158C186.304 55.245 186.411 54.8551 186.411 54.446V53.0653C186.347 53.142 186.206 53.2124 185.989 53.2763C185.776 53.3359 185.529 53.3892 185.247 53.4361C184.97 53.4787 184.7 53.517 184.435 53.5511C184.176 53.581 183.965 53.6065 183.803 53.6278C183.411 53.679 183.044 53.7621 182.703 53.8771C182.367 53.9879 182.094 54.1562 181.885 54.3821C181.681 54.6037 181.578 54.9062 181.578 55.2898C181.578 55.8139 181.772 56.2102 182.16 56.4787C182.552 56.7429 183.048 56.875 183.649 56.875ZM192.001 52.0938V58H190.493V48.1818H191.95V49.7159H192.078C192.308 49.2173 192.657 48.8168 193.126 48.5142C193.595 48.2074 194.2 48.054 194.941 48.054C195.606 48.054 196.188 48.1903 196.686 48.4631C197.185 48.7315 197.573 49.1406 197.85 49.6903C198.127 50.2358 198.265 50.9261 198.265 51.7614V58H196.757V51.8636C196.757 51.0923 196.556 50.4915 196.156 50.0611C195.755 49.6264 195.206 49.4091 194.507 49.4091C194.025 49.4091 193.595 49.5135 193.216 49.7223C192.841 49.9311 192.544 50.2358 192.327 50.6364C192.11 51.0369 192.001 51.5227 192.001 52.0938ZM205.112 48.1818V49.4602H200.024V48.1818H205.112ZM201.507 45.8295H203.015V55.1875C203.015 55.6136 203.077 55.9332 203.2 56.1463C203.328 56.3551 203.49 56.4957 203.686 56.5682C203.887 56.6364 204.097 56.6705 204.319 56.6705C204.485 56.6705 204.622 56.6619 204.728 56.6449C204.835 56.6236 204.92 56.6065 204.984 56.5938L205.291 57.9489C205.188 57.9872 205.046 58.0256 204.862 58.0639C204.679 58.1065 204.447 58.1278 204.166 58.1278C203.74 58.1278 203.322 58.0362 202.913 57.853C202.508 57.6697 202.171 57.3906 201.903 57.0156C201.639 56.6406 201.507 56.1676 201.507 55.5966V45.8295ZM208.172 61.6818C207.917 61.6818 207.689 61.6605 207.489 61.6179C207.288 61.5795 207.15 61.5412 207.073 61.5028L207.457 60.1733C207.823 60.267 208.147 60.3011 208.428 60.2756C208.709 60.25 208.959 60.1243 209.176 59.8984C209.398 59.6768 209.6 59.3168 209.783 58.8182L210.065 58.0511L206.434 48.1818H208.07L210.78 56.0057H210.883L213.593 48.1818H215.229L211.062 59.4318C210.874 59.9389 210.642 60.3587 210.365 60.6911C210.088 61.0277 209.766 61.277 209.4 61.4389C209.038 61.6009 208.628 61.6818 208.172 61.6818Z" fill="#8A8A8A"/>
<path d="M141.502 89V87.0966L146.552 82.1463C147.035 81.6586 147.437 81.2254 147.759 80.8466C148.081 80.4678 148.323 80.1009 148.484 79.7457C148.645 79.3906 148.725 79.0118 148.725 78.6094C148.725 78.1501 148.621 77.7571 148.412 77.4304C148.204 77.099 147.918 76.8433 147.553 76.6634C147.189 76.4834 146.774 76.3935 146.31 76.3935C145.832 76.3935 145.413 76.4929 145.053 76.6918C144.693 76.8859 144.414 77.1629 144.215 77.5227C144.021 77.8826 143.924 78.3111 143.924 78.8082H141.417C141.417 77.8849 141.627 77.0824 142.049 76.4006C142.47 75.7187 143.05 75.1908 143.789 74.8168C144.532 74.4427 145.385 74.2557 146.346 74.2557C147.321 74.2557 148.178 74.438 148.917 74.8026C149.655 75.1671 150.228 75.6667 150.636 76.3011C151.047 76.9356 151.253 77.66 151.253 78.4744C151.253 79.0189 151.149 79.554 150.941 80.0795C150.733 80.6051 150.366 81.1875 149.84 81.8267C149.319 82.4659 148.588 83.2401 147.645 84.1491L145.138 86.6989V86.7983H151.474V89H141.502ZM160.111 93.0909C159.761 93.0909 159.437 93.0625 159.138 93.0057C158.845 92.9536 158.61 92.892 158.435 92.821L159.032 90.8182C159.406 90.9271 159.74 90.9792 160.033 90.9744C160.327 90.9697 160.585 90.8774 160.807 90.6974C161.035 90.5223 161.226 90.2287 161.383 89.8168L161.603 89.2273L157.647 78.0909H160.374L162.888 86.3295H163.002L165.523 78.0909H168.258L163.89 90.321C163.686 90.8987 163.416 91.3935 163.08 91.8054C162.744 92.2221 162.332 92.5393 161.844 92.7571C161.361 92.9796 160.784 93.0909 160.111 93.0909ZM174.295 89.2131C173.201 89.2131 172.257 88.9858 171.461 88.5312C170.671 88.072 170.062 87.4233 169.636 86.5852C169.21 85.7424 168.997 84.7505 168.997 83.6094C168.997 82.4872 169.21 81.5024 169.636 80.6548C170.067 79.8026 170.668 79.1397 171.44 78.6662C172.212 78.188 173.118 77.9489 174.16 77.9489C174.833 77.9489 175.467 78.0578 176.064 78.2756C176.665 78.4886 177.195 78.8201 177.654 79.2699C178.118 79.7197 178.483 80.2926 178.748 80.9886C179.013 81.6799 179.146 82.5038 179.146 83.4602V84.2486H170.204V82.5156H176.681C176.677 82.0232 176.57 81.5852 176.362 81.2017C176.154 80.8134 175.862 80.508 175.488 80.2855C175.119 80.063 174.688 79.9517 174.196 79.9517C173.67 79.9517 173.208 80.0795 172.811 80.3352C172.413 80.5862 172.103 80.9176 171.88 81.3295C171.663 81.7367 171.551 82.1842 171.547 82.6719V84.1847C171.547 84.8191 171.663 85.3636 171.895 85.8182C172.127 86.268 172.451 86.6136 172.868 86.8551C173.284 87.0919 173.772 87.2102 174.331 87.2102C174.705 87.2102 175.043 87.1581 175.346 87.054C175.649 86.9451 175.912 86.7865 176.135 86.5781C176.357 86.3698 176.525 86.1117 176.639 85.804L179.039 86.0739C178.888 86.7083 178.599 87.2623 178.173 87.7358C177.752 88.2045 177.212 88.5691 176.554 88.8295C175.895 89.0852 175.143 89.2131 174.295 89.2131ZM184.26 89.2202C183.569 89.2202 182.946 89.0971 182.392 88.8509C181.843 88.5999 181.407 88.2306 181.086 87.7429C180.768 87.2552 180.61 86.6539 180.61 85.9389C180.61 85.3234 180.723 84.8144 180.951 84.4119C181.178 84.0095 181.488 83.6875 181.881 83.446C182.274 83.2045 182.717 83.0223 183.209 82.8991C183.706 82.7713 184.22 82.679 184.75 82.6222C185.389 82.5559 185.908 82.4967 186.306 82.4446C186.703 82.3878 186.992 82.3026 187.172 82.1889C187.357 82.0705 187.449 81.8883 187.449 81.642V81.5994C187.449 81.0644 187.291 80.6501 186.973 80.3565C186.656 80.063 186.199 79.9162 185.603 79.9162C184.973 79.9162 184.473 80.0535 184.104 80.3281C183.739 80.6027 183.493 80.9271 183.365 81.3011L180.965 80.9602C181.154 80.2973 181.467 79.7434 181.902 79.2983C182.338 78.8485 182.871 78.5123 183.5 78.2898C184.13 78.0625 184.826 77.9489 185.588 77.9489C186.114 77.9489 186.637 78.0104 187.158 78.1335C187.679 78.2566 188.155 78.4602 188.586 78.7443C189.016 79.0237 189.362 79.4048 189.622 79.8878C189.888 80.3707 190.02 80.9744 190.02 81.6989V89H187.549V87.5014H187.463C187.307 87.8045 187.087 88.0885 186.803 88.3537C186.523 88.6141 186.171 88.8248 185.745 88.9858C185.323 89.142 184.828 89.2202 184.26 89.2202ZM184.928 87.331C185.444 87.331 185.891 87.2292 186.27 87.0256C186.649 86.8172 186.94 86.5426 187.144 86.2017C187.352 85.8608 187.456 85.4891 187.456 85.0866V83.8011C187.376 83.8674 187.238 83.929 187.044 83.9858C186.855 84.0426 186.642 84.0923 186.405 84.1349C186.168 84.1776 185.934 84.2154 185.702 84.2486C185.47 84.2817 185.269 84.3101 185.098 84.3338C184.715 84.3859 184.371 84.4711 184.068 84.5895C183.765 84.7079 183.526 84.8736 183.351 85.0866C183.176 85.295 183.088 85.5649 183.088 85.8963C183.088 86.3698 183.261 86.7273 183.607 86.9688C183.952 87.2102 184.393 87.331 184.928 87.331ZM192.405 89V78.0909H194.898V79.9091H195.012C195.211 79.2794 195.552 78.794 196.035 78.4531C196.522 78.1075 197.079 77.9347 197.704 77.9347C197.846 77.9347 198.004 77.9418 198.18 77.956C198.359 77.9654 198.509 77.982 198.627 78.0057V80.3707C198.518 80.3329 198.345 80.2997 198.109 80.2713C197.877 80.2382 197.652 80.2216 197.434 80.2216C196.965 80.2216 196.544 80.3234 196.17 80.527C195.8 80.7259 195.509 81.0028 195.296 81.358C195.083 81.7131 194.976 82.1226 194.976 82.5866V89H192.405ZM208.757 80.9744L206.413 81.2301C206.347 80.9934 206.231 80.7708 206.065 80.5625C205.904 80.3542 205.687 80.1861 205.412 80.0582C205.137 79.9304 204.801 79.8665 204.404 79.8665C203.869 79.8665 203.419 79.9825 203.054 80.2145C202.694 80.4465 202.517 80.7472 202.521 81.1165C202.517 81.4337 202.633 81.6918 202.869 81.8906C203.111 82.0895 203.509 82.2528 204.063 82.3807L205.923 82.7784C206.956 83.0009 207.723 83.3537 208.225 83.8366C208.731 84.3196 208.987 84.9517 208.992 85.733C208.987 86.4195 208.786 87.0256 208.388 87.5511C207.995 88.072 207.448 88.4792 206.747 88.7727C206.047 89.0663 205.242 89.2131 204.333 89.2131C202.997 89.2131 201.922 88.9337 201.108 88.375C200.294 87.8116 199.808 87.0279 199.652 86.0241L202.159 85.7827C202.273 86.2751 202.514 86.6468 202.884 86.8977C203.253 87.1487 203.734 87.2741 204.325 87.2741C204.936 87.2741 205.426 87.1487 205.796 86.8977C206.17 86.6468 206.357 86.3366 206.357 85.9673C206.357 85.6548 206.236 85.3968 205.994 85.1932C205.758 84.9896 205.388 84.8333 204.887 84.7244L203.026 84.3338C201.979 84.116 201.205 83.7491 200.703 83.233C200.201 82.7121 199.953 82.054 199.958 81.2585C199.953 80.5862 200.135 80.0038 200.504 79.5114C200.878 79.0142 201.397 78.6307 202.06 78.3608C202.727 78.0862 203.497 77.9489 204.368 77.9489C205.646 77.9489 206.653 78.2211 207.387 78.7656C208.125 79.3101 208.582 80.0464 208.757 80.9744Z" fill="black"/>
</g>
<defs>
<filter id="filter0_d_6_691" x="0" y="0" width="348" height="180" filterUnits="userSpaceOnUse" color-interpolation-filters="sRGB">
<feFlood flood-opacity="0" result="BackgroundImageFix"/>
<feColorMatrix in="SourceAlpha" type="matrix" values="0 0 0 0 0 0 0 0 0 0 0 0 0 0 0 0 0 0 127 0" result="hardAlpha"/>
<feOffset dy="24"/>
<feGaussianBlur stdDeviation="22"/>
<feComposite in2="hardAlpha" operator="out"/>
<feColorMatrix type="matrix" values="0 0 0 0 0.886275 0 0 0 0 0.847059 0 0 0 0 0.937255 0 0 0 1 0"/>
<feBlend mode="multiply" in2="BackgroundImageFix" result="effect1_dropShadow_6_691"/>
<feBlend mode="normal" in="SourceGraphic" in2="effect1_dropShadow_6_691" result="shape"/>
</filter>
</defs>
</svg>
