<svg width="60" height="60" viewBox="0 0 60 60" fill="none" xmlns="http://www.w3.org/2000/svg">
<circle cx="30" cy="30" r="30" fill="black"/>
<path d="M38.3333 21.6667H16.6666C15.7826 21.6667 14.9347 22.0179 14.3096 22.643C13.6845 23.2681 13.3333 24.116 13.3333 25V35C13.3333 35.8841 13.6845 36.7319 14.3096 37.357C14.9347 37.9822 15.7826 38.3334 16.6666 38.3334H38.3333C39.2174 38.3334 40.0652 37.9822 40.6903 37.357C41.3155 36.7319 41.6666 35.8841 41.6666 35V25C41.6666 24.116 41.3155 23.2681 40.6903 22.643C40.0652 22.0179 39.2174 21.6667 38.3333 21.6667ZM38.3333 35H16.6666V25H38.3333V35ZM45 26.6667C44.558 26.6667 44.134 26.8423 43.8215 27.1548C43.5089 27.4674 43.3333 27.8913 43.3333 28.3334V31.6667C43.3333 32.1087 43.5089 32.5326 43.8215 32.8452C44.134 33.1578 44.558 33.3334 45 33.3334C45.442 33.3334 45.8659 33.1578 46.1785 32.8452C46.4911 32.5326 46.6666 32.1087 46.6666 31.6667V28.3334C46.6666 27.8913 46.4911 27.4674 46.1785 27.1548C45.8659 26.8423 45.442 26.6667 45 26.6667Z" fill="white"/>
</svg>
