<svg width="32" height="32" viewBox="0 0 32 32" fill="none" xmlns="http://www.w3.org/2000/svg">
<path d="M27.3201 10.0267C27.3125 9.9915 27.3125 9.95514 27.3201 9.91999C27.3136 9.88921 27.3136 9.85743 27.3201 9.82665V9.70665L27.2401 9.50665C27.2076 9.45208 27.1671 9.40265 27.1201 9.35999L27.0001 9.25332H26.9334L21.6801 5.93332L16.7201 2.86665C16.6053 2.77563 16.474 2.70771 16.3334 2.66665H16.2268C16.1076 2.64676 15.9859 2.64676 15.8668 2.66665H15.7334C15.5785 2.70091 15.4301 2.75941 15.2934 2.83999L5.33342 9.03999L5.21342 9.13332L5.09342 9.23999L4.96009 9.33332L4.89342 9.41332L4.81342 9.61332V9.73332V9.81332C4.80047 9.90174 4.80047 9.99157 4.81342 10.08V21.72C4.81297 21.9466 4.87027 22.1695 4.97992 22.3678C5.08957 22.5661 5.24794 22.7332 5.44009 22.8533L15.4401 29.04L15.6401 29.12H15.7468C15.9723 29.1915 16.2145 29.1915 16.4401 29.12H16.5468L16.7468 29.04L26.6668 22.9467C26.8589 22.8266 27.0173 22.6595 27.1269 22.4612C27.2366 22.2629 27.2939 22.0399 27.2934 21.8133V10.1733C27.2934 10.1733 27.3201 10.08 27.3201 10.0267ZM16.0001 5.55999L18.3734 7.02665L10.9201 11.64L8.53342 10.1733L16.0001 5.55999ZM14.6668 25.56L7.33342 21.08V12.56L14.6668 17.0933V25.56ZM16.0001 14.7467L13.4534 13.2133L20.9068 8.58665L23.4668 10.1733L16.0001 14.7467ZM24.6668 21.04L17.3334 25.6V17.0933L24.6668 12.56V21.04Z" fill="black"/>
</svg>
