<svg width="142" height="30" viewBox="0 0 142 30" fill="none" xmlns="http://www.w3.org/2000/svg">
<path d="M13.5734 5.8906C14.0225 4.50863 15.9776 4.50863 16.4266 5.8906L18.0309 10.8283C18.2318 11.4463 18.8077 11.8648 19.4575 11.8648H24.6493C26.1024 11.8648 26.7066 13.7242 25.531 14.5783L21.3308 17.63C20.805 18.0119 20.585 18.689 20.7858 19.307L22.3902 24.2447C22.8392 25.6267 21.2575 26.7759 20.0819 25.9218L15.8817 22.8701C15.356 22.4881 14.6441 22.4881 14.1183 22.8701L9.91807 25.9218C8.7425 26.7759 7.16078 25.6267 7.60981 24.2447L9.21417 19.307C9.41498 18.689 9.19499 18.0119 8.66926 17.63L4.46901 14.5783C3.29344 13.7242 3.8976 11.8648 5.35068 11.8648H10.5425C11.1923 11.8648 11.7683 11.4463 11.9691 10.8283L13.5734 5.8906Z" fill="#FF8A00"/>
<path d="M41.5734 5.8906C42.0225 4.50863 43.9776 4.50863 44.4266 5.8906L46.0309 10.8283C46.2318 11.4463 46.8077 11.8648 47.4575 11.8648H52.6493C54.1024 11.8648 54.7066 13.7242 53.531 14.5783L49.3308 17.63C48.805 18.0119 48.585 18.689 48.7858 19.307L50.3902 24.2447C50.8392 25.6267 49.2575 26.7759 48.0819 25.9218L43.8817 22.8701C43.356 22.4881 42.6441 22.4881 42.1183 22.8701L37.9181 25.9218C36.7425 26.7759 35.1608 25.6267 35.6098 24.2447L37.2142 19.307C37.415 18.689 37.195 18.0119 36.6693 17.63L32.469 14.5783C31.2934 13.7242 31.8976 11.8648 33.3507 11.8648H38.5425C39.1923 11.8648 39.7683 11.4463 39.9691 10.8283L41.5734 5.8906Z" fill="#FF8A00"/>
<path d="M69.5734 5.8906C70.0225 4.50863 71.9776 4.50863 72.4266 5.8906L74.0309 10.8283C74.2318 11.4463 74.8077 11.8648 75.4575 11.8648H80.6493C82.1024 11.8648 82.7066 13.7242 81.531 14.5783L77.3308 17.63C76.805 18.0119 76.585 18.689 76.7858 19.307L78.3902 24.2447C78.8392 25.6267 77.2575 26.7759 76.0819 25.9218L71.8817 22.8701C71.356 22.4881 70.6441 22.4881 70.1183 22.8701L65.9181 25.9218C64.7425 26.7759 63.1608 25.6267 63.6098 24.2447L65.2142 19.307C65.415 18.689 65.195 18.0119 64.6693 17.63L60.469 14.5783C59.2934 13.7242 59.8976 11.8648 61.3507 11.8648H66.5425C67.1923 11.8648 67.7683 11.4463 67.9691 10.8283L69.5734 5.8906Z" fill="#FF8A00"/>
<path d="M97.5734 5.8906C98.0225 4.50863 99.9776 4.50863 100.427 5.8906L102.031 10.8283C102.232 11.4463 102.808 11.8648 103.458 11.8648H108.649C110.102 11.8648 110.707 13.7242 109.531 14.5783L105.331 17.63C104.805 18.0119 104.585 18.689 104.786 19.307L106.39 24.2447C106.839 25.6267 105.258 26.7759 104.082 25.9218L99.8817 22.8701C99.356 22.4881 98.6441 22.4881 98.1183 22.8701L93.9181 25.9218C92.7425 26.7759 91.1608 25.6267 91.6098 24.2447L93.2142 19.307C93.415 18.689 93.195 18.0119 92.6693 17.63L88.469 14.5783C87.2934 13.7242 87.8976 11.8648 89.3507 11.8648H94.5425C95.1923 11.8648 95.7683 11.4463 95.9691 10.8283L97.5734 5.8906Z" fill="#FF8A00"/>
<path d="M125.573 5.8906C126.022 4.50863 127.978 4.50863 128.427 5.8906L130.031 10.8283C130.232 11.4463 130.808 11.8648 131.458 11.8648H136.649C138.102 11.8648 138.707 13.7242 137.531 14.5783L133.331 17.63C132.805 18.0119 132.585 18.689 132.786 19.307L134.39 24.2447C134.839 25.6267 133.258 26.7759 132.082 25.9218L127.882 22.8701C127.356 22.4881 126.644 22.4881 126.118 22.8701L121.918 25.9218C120.743 26.7759 119.161 25.6267 119.61 24.2447L121.214 19.307C121.415 18.689 121.195 18.0119 120.669 17.63L116.469 14.5783C115.293 13.7242 115.898 11.8648 117.351 11.8648H122.542C123.192 11.8648 123.768 11.4463 123.969 10.8283L125.573 5.8906Z" fill="#BFC0C2"/>
<mask id="mask0_6_720" style="mask-type:alpha" maskUnits="userSpaceOnUse" x="115" y="4" width="24" height="23">
<path d="M125.574 5.8906C126.023 4.50863 127.978 4.50863 128.427 5.8906L130.031 10.8283C130.232 11.4463 130.808 11.8648 131.458 11.8648H136.649C138.103 11.8648 138.707 13.7242 137.531 14.5783L133.331 17.63C132.805 18.0119 132.585 18.689 132.786 19.307L134.39 24.2447C134.839 25.6267 133.258 26.7759 132.082 25.9218L127.882 22.8701C127.356 22.4881 126.644 22.4881 126.118 22.8701L121.918 25.9218C120.743 26.7759 119.161 25.6267 119.61 24.2447L121.214 19.307C121.415 18.689 121.195 18.0119 120.669 17.63L116.469 14.5783C115.294 13.7242 115.898 11.8648 117.351 11.8648H122.543C123.192 11.8648 123.768 11.4463 123.969 10.8283L125.574 5.8906Z" fill="#FF8A00"/>
</mask>
<g mask="url(#mask0_6_720)">
<rect x="115.75" y="4.6875" width="16.875" height="25.3125" fill="#FF8A00"/>
</g>
</svg>
