<svg width="11" height="11" viewBox="0 0 11 11" fill="none" xmlns="http://www.w3.org/2000/svg">
<path d="M6.09493 1.01316C6.2023 0.83022 6.55025 0.917904 6.55599 1.13001C6.5844 2.12504 6.7265 3.63957 7.29094 4.59279C7.85628 5.54432 9.1183 6.3972 9.97777 6.89839C10.1607 7.00576 10.0713 7.35282 9.85922 7.35856C8.86419 7.38697 7.35136 7.52997 6.39813 8.09441C5.44491 8.65885 4.59373 9.92177 4.09254 10.7812C3.98517 10.9642 3.63641 10.8739 3.63237 10.6627C3.60396 9.66765 3.46097 8.15483 2.89482 7.2007C2.33038 6.24748 1.06746 5.3963 0.209699 4.89601C0.026758 4.78864 0.115337 4.43898 0.326545 4.43494C1.32158 4.40653 2.83611 4.26443 3.79023 3.69828C4.74176 3.13294 5.59463 1.87092 6.09493 1.01316Z" fill="white"/>
</svg>
