<svg width="60" height="60" viewBox="0 0 60 60" fill="none" xmlns="http://www.w3.org/2000/svg">
<circle cx="30" cy="30" r="30" fill="black"/>
<path d="M42.5067 21.68C42.4611 21.5098 42.3823 21.3502 42.2748 21.2106C42.1672 21.071 42.033 20.9541 41.88 20.8667L34.9467 16.8667C34.7953 16.778 34.6279 16.72 34.4541 16.6961C34.2802 16.6722 34.1034 16.6829 33.9337 16.7275C33.764 16.7721 33.6048 16.8497 33.4651 16.956C33.3255 17.0622 33.2082 17.195 33.12 17.3467L30 22.76L26.88 17.3467C26.7918 17.195 26.6745 17.0622 26.5349 16.956C26.3952 16.8497 26.236 16.7721 26.0663 16.7275C25.8966 16.6829 25.7198 16.6722 25.546 16.6961C25.3721 16.72 25.2047 16.778 25.0533 16.8667L18.12 20.8667C17.967 20.9541 17.8328 21.071 17.7252 21.2106C17.6177 21.3502 17.5389 21.5098 17.4933 21.68C17.4051 22.0179 17.453 22.377 17.6267 22.68L22.96 31.7867C22.365 32.8767 22.0361 34.092 22 35.3333C21.9968 36.5444 22.2686 37.7404 22.795 38.8311C23.3213 39.9218 24.0883 40.8787 25.0383 41.6298C25.9883 42.3809 27.0965 42.9065 28.2792 43.167C29.4619 43.4275 30.6883 43.4161 31.8659 43.1337C33.0436 42.8512 34.1417 42.305 35.0776 41.5364C36.0134 40.7677 36.7625 39.7966 37.2685 38.6963C37.7744 37.596 38.0239 36.3952 37.9982 35.1844C37.9725 33.9737 37.6722 32.7845 37.12 31.7067L42.32 22.6933C42.4168 22.5453 42.4831 22.3794 42.5152 22.2054C42.5472 22.0315 42.5443 21.8529 42.5067 21.68ZM20.6667 22.5067L25.28 19.84L29.5733 27.3333C27.7432 27.4464 26.0091 28.191 24.6667 29.44L20.6667 22.5067ZM30 40.6667C28.5855 40.6667 27.229 40.1048 26.2288 39.1046C25.2286 38.1044 24.6667 36.7478 24.6667 35.3333C24.6667 33.9189 25.2286 32.5623 26.2288 31.5621C27.229 30.5619 28.5855 30 30 30C31.4145 30 32.771 30.5619 33.7712 31.5621C34.7714 32.5623 35.3333 33.9189 35.3333 35.3333C35.3333 36.7478 34.7714 38.1044 33.7712 39.1046C32.771 40.1048 31.4145 40.6667 30 40.6667ZM35.3333 29.4C34.6094 28.7388 33.7683 28.2188 32.8533 27.8667L31.5467 25.4267L34.7733 19.84L39.3867 22.5067L35.3333 29.4Z" fill="white"/>
</svg>
